C:\GBW_MyPrograms\KinderuniversiteitApp\Resultaten\Ellis_v10102025\Mars\Mars_v1.mot
version=1
nRows=13
nColumns=29
inDegrees=yes
endheader
                time	         pelvis_tilt	           pelvis_tx	           pelvis_ty	       hip_flexion_l	       hip_flexion_r	        knee_angle_l	        knee_angle_r	       ankle_angle_l	       ankle_angle_r	    lumbar_extension	hamstrings_r/activation	bifemsh_r/activation	glut_max_r/activation	iliopsoas_r/activation	rect_fem_r/activation	  vasti_r/activation	gastroc_r/activation	 soleus_r/activation	tib_ant_r/activation	hamstrings_l/activation	bifemsh_l/activation	glut_max_l/activation	iliopsoas_l/activation	rect_fem_l/activation	  vasti_l/activation	gastroc_l/activation	 soleus_l/activation	tib_ant_l/activation	
          0.00000000	         -8.04445459	          0.00000000	          0.90328409	         -5.76873605	         30.30347510	        -26.02424847	        -20.37324197	         -2.65409260	          8.83130381	          1.61621192	          0.17169088	          0.05000061	          0.14574792	          0.05000008	          0.05000019	          0.07917466	          0.05000004	          0.05000002	          0.23591988	          0.05000013	          0.06194551	          0.05000008	          0.39602094	          0.14053288	          0.05000004	          0.05425233	          0.05459940	          0.17415117	
          0.01294558	         -8.09246684	          0.01971992	          0.90147447	         -4.93562362	         29.46033838	        -28.50908288	        -20.89343826	         -2.15676288	          8.84295900	          1.97151979	          0.14122109	          0.05793811	          0.16018217	          0.05000006	          0.05000007	          0.08896563	          0.05718590	          0.05539391	          0.23076600	          0.05000065	          0.05276476	          0.05000007	          0.32595230	          0.11559273	          0.05000005	          0.05000054	          0.05000011	          0.16373130	
          0.02589115	         -8.14227632	          0.03927692	          0.89951550	         -3.98527728	         28.63251683	        -30.89716934	        -21.69636054	         -1.72462902	          8.96189335	          2.31065569	          0.11615874	          0.05347849	          0.18802414	          0.05000004	          0.05000006	          0.13738002	          0.05000004	          0.05000002	          0.24918511	          0.05000321	          0.05000137	          0.05000001	          0.28220685	          0.14610056	          0.05000007	          0.05000017	          0.05000006	          0.16304240	
          0.03883673	         -8.19510890	          0.05850731	          0.89784346	         -2.95494465	         27.93780162	        -33.03068488	        -22.70751843	         -1.37643732	          9.27740100	          2.61338760	          0.09554418	          0.05000060	          0.19673870	          0.05000005	          0.05000011	          0.19704433	          0.05000042	          0.05000011	          0.22731291	          0.05000041	          0.09664184	          0.05000009	          0.24661002	          0.18484235	          0.05000004	          0.05000045	          0.05000009	          0.16274299	
          0.05178231	         -8.25034488	          0.07739019	          0.89679580	         -1.87352531	         27.33562034	        -34.81173234	        -23.86303671	         -1.06317328	          9.87745436	          2.87654227	          0.07858807	          0.05000108	          0.19747200	          0.05000007	          0.05000011	          0.24598407	          0.07748942	          0.08577427	          0.18697213	          0.05000080	          0.16202523	          0.05000006	          0.21135902	          0.19983841	          0.05000003	          0.05000085	          0.05000009	          0.16403299	
          0.06472788	         -8.30816000	          0.09595705	          0.89659784	         -0.74792040	         26.66830536	        -36.23239324	        -24.85079770	         -0.75828168	         10.50437430	          3.10501298	          0.06533972	          0.06458788	          0.18064843	          0.05000007	          0.05000009	          0.27584980	          0.10145362	          0.11617279	          0.15591163	          0.06551540	          0.22033868	          0.05000006	          0.17845062	          0.20467200	          0.05000003	          0.05000986	          0.05000010	          0.16481915	
          0.07767346	         -8.36825748	          0.11423778	          0.89733585	          0.42940795	         25.81238195	        -37.35712660	        -25.42512647	         -0.45490940	         10.91658857	          3.30284852	          0.06488188	          0.05314174	          0.15080280	          0.05000006	          0.05000009	          0.28238274	          0.12735671	          0.14511218	          0.13280170	          0.07904796	          0.26963711	          0.05000007	          0.15108986	          0.20433194	          0.05000003	          0.05015804	          0.05000010	          0.16547777	
          0.09061904	         -8.42939637	          0.13224952	          0.89898229	          1.66836168	         24.72661569	        -38.27358231	        -25.50895018	         -0.15383721	         11.04834567	          3.47111664	          0.06800266	          0.05000061	          0.12455155	          0.05000004	          0.05000009	          0.25962432	          0.15329609	          0.16608115	          0.10923363	          0.07390918	          0.30607143	          0.05000008	          0.12574170	          0.19874813	          0.05000004	          0.05000739	          0.05000010	          0.16575624	
          0.10356461	         -8.48966414	          0.14998972	          0.90143831	          2.97147977	         23.44615578	        -39.04446412	        -25.16671683	          0.14291575	         10.88993441	          3.60735826	          0.07061576	          0.05000031	          0.10695179	          0.05000003	          0.05000010	          0.21354990	          0.17891694	          0.17881090	          0.08984809	          0.06079301	          0.32928557	          0.05000008	          0.10540088	          0.19149094	          0.05000004	          0.05000152	          0.05000010	          0.16596896	
          0.11651019	         -8.54685832	          0.16745051	          0.90455670	          4.33348633	         22.04034644	        -39.70314086	        -24.52527430	          0.43214058	         10.45417213	          3.70793821	          0.07104462	          0.05000024	          0.09421980	          0.05000003	          0.05000012	          0.17565145	          0.20189573	          0.18305585	          0.07390286	          0.05000439	          0.34048846	          0.05000007	          0.09285407	          0.18388523	          0.05000005	          0.05000086	          0.05000010	          0.16611410	
          0.12945576	         -8.59908457	          0.18463704	          0.90818852	          5.74596856	         20.56114526	        -40.26904610	        -23.68085715	          0.71128358	          9.76027968	          3.77119350	          0.06860519	          0.05000021	          0.08347485	          0.05000003	          0.05000017	          0.14447879	          0.22037741	          0.17983412	          0.06078742	          0.05000019	          0.33940158	          0.05000006	          0.08832363	          0.17665424	          0.05000006	          0.05000066	          0.05000011	          0.16603047	
          0.14240134	         -8.64502812	          0.20155660	          0.91221295	          7.20341569	         19.05415467	        -40.76430622	        -22.72264867	          0.97836792	          8.83452664	          3.79637750	          0.06475703	          0.05000019	          0.07783645	          0.05000003	          0.05000024	          0.11883831	          0.23317320	          0.17085273	          0.05000004	          0.05000012	          0.32864298	          0.05000005	          0.08763586	          0.16876374	          0.05000008	          0.05000051	          0.05000011	          0.16613536	
          0.15534692	         -8.68388335	          0.21821529	          0.91654548	          8.69923004	         17.57393291	        -41.20030164	        -21.75845822	          1.23430385	          7.71114927	          3.78316011	          0.05965634	          0.05000020	          0.07330020	          0.05000004	          0.05000036	          0.09774825	          0.23983371	          0.15917484	          0.05000003	          0.05000008	          0.31342820	          0.05000005	          0.08934453	          0.16034176	          0.05000009	          0.05000048	          0.05000012	          0.16628827	
